<?xml version="1.0" standalone="no"?>
<!DOCTYPE svg PUBLIC "-//W3C//DTD SVG 20010904//EN"
 "http://www.w3.org/TR/2001/REC-SVG-20010904/DTD/svg10.dtd">
<svg version="1.0" xmlns="http://www.w3.org/2000/svg"
 width="468.000000pt" height="135.000000pt" viewBox="0 0 468.000000 135.000000"
 preserveAspectRatio="xMidYMid meet">

<g transform="translate(0.000000,135.000000) scale(0.100000,-0.100000)"
fill="#000000" stroke="none">
<path d="M1932 1158 c-1 -14 -8 -28 -14 -30 -10 -4 -14 -103 -16 -441 l-4
-437 -21 -4 c-12 -3 -47 -8 -77 -11 -75 -8 -194 -39 -285 -74 -41 -16 -77 -25
-81 -20 -3 5 -22 9 -43 9 -46 0 -71 -24 -71 -67 0 -68 87 -87 125 -26 16 25
37 38 100 61 109 40 194 60 298 71 49 5 90 11 93 13 2 3 3 225 1 494 -1 269
-3 477 -5 462z"/>
<path d="M403 1133 c-10 -4 -13 -106 -13 -468 l0 -464 48 -5 c142 -17 203 -29
281 -52 103 -31 161 -60 161 -78 0 -41 83 -62 113 -28 23 25 21 75 -3 97 -16
14 -29 16 -66 11 -36 -5 -62 0 -115 19 -96 34 -214 63 -295 72 l-69 8 -7 439
c-5 242 -11 443 -15 447 -5 3 -14 4 -20 2z"/>
<path d="M850 1134 c0 -2 16 -10 35 -18 52 -22 169 -100 220 -147 l45 -42 0
-222 0 -222 -25 -27 c-29 -31 -32 -62 -9 -94 19 -28 74 -30 97 -4 23 25 21 75
-3 97 -19 17 -20 31 -20 255 l0 238 -41 37 c-80 72 -202 144 -253 149 -25 2
-46 2 -46 0z"/>
<path d="M1375 1114 c-14 -10 -32 -13 -60 -8 -33 4 -44 2 -58 -14 -27 -30 -19
-83 15 -100 40 -19 75 -1 87 45 9 33 19 43 63 65 l53 27 -40 0 c-22 0 -49 -6
-60 -15z"/>
<path d="M4246 892 c-3 -3 -6 -41 -6 -84 0 -78 0 -79 -22 -71 -64 22 -130 -5
-154 -62 -18 -45 -18 -148 1 -185 30 -58 86 -75 145 -45 27 14 32 14 55 -1 14
-9 29 -14 32 -10 7 7 4 422 -4 441 -5 14 -39 26 -47 17z m-31 -204 c24 -11 25
-15 25 -88 0 -68 -3 -79 -24 -99 -31 -30 -76 -25 -94 9 -19 36 -11 143 12 169
22 24 44 26 81 9z"/>
<path d="M2142 838 c3 -20 10 -24 58 -28 l55 -5 3 -188 2 -188 28 3 27 3 3
187 2 187 53 3 c45 3 52 6 55 26 3 22 3 22 -143 22 -146 0 -146 0 -143 -22z"/>
<path d="M3322 648 l3 -213 55 -3 c91 -6 157 7 190 35 51 43 64 78 64 178 0
106 -19 156 -73 192 -30 20 -47 23 -138 23 l-103 0 2 -212z m193 156 c31 -12
55 -79 55 -154 0 -122 -38 -170 -133 -170 -42 0 -45 2 -51 31 -3 17 -6 78 -6
134 0 56 3 117 6 134 6 30 8 31 59 31 30 0 61 -3 70 -6z"/>
<path d="M2805 828 c-2 -7 -6 -29 -7 -48 -2 -28 -8 -36 -25 -38 -33 -5 -31
-42 2 -42 l24 0 3 -122 c3 -119 4 -123 29 -137 35 -19 99 -8 99 19 0 14 -8 20
-32 22 l-33 3 -3 107 -3 107 38 3 c27 2 39 8 41 21 3 14 -4 17 -37 17 l-40 0
-3 48 c-3 40 -6 47 -26 50 -12 2 -24 -3 -27 -10z"/>
<path d="M3051 737 c-42 -21 -64 -62 -69 -127 -9 -117 36 -180 128 -180 42 0
110 23 110 37 -1 24 -18 35 -38 24 -11 -6 -38 -11 -60 -11 -43 0 -66 19 -77
62 l-7 27 94 3 93 3 3 37 c8 100 -90 170 -177 125z m96 -49 c14 -13 23 -33 23
-50 l0 -29 -62 3 -63 3 2 30 c2 31 34 65 61 65 9 0 26 -10 39 -22z"/>
<path d="M4439 727 c-78 -52 -80 -216 -4 -275 33 -26 98 -29 150 -8 37 16 40
22 26 45 -6 10 -13 11 -29 2 -11 -6 -38 -11 -60 -11 -43 0 -66 19 -77 62 l-7
27 94 3 93 3 3 30 c13 113 -97 184 -189 122z m108 -39 c13 -13 23 -33 23 -50
0 -28 -1 -28 -59 -28 -33 0 -62 4 -65 9 -9 13 12 64 31 79 24 18 44 15 70 -10z"/>
<path d="M2434 718 c3 -13 6 -72 6 -131 0 -101 2 -109 25 -132 29 -30 67 -32
119 -5 39 19 39 19 64 -1 22 -17 28 -18 40 -6 11 11 11 19 3 35 -6 12 -11 73
-11 141 l0 121 -30 0 -30 0 0 -110 c0 -103 -1 -110 -22 -124 -34 -21 -61 -27
-78 -16 -11 7 -16 37 -20 127 l-5 118 -34 3 c-31 3 -33 2 -27 -20z"/>
<path d="M3718 638 c3 -133 9 -165 33 -189 24 -24 64 -24 113 1 39 19 39 19
64 -1 22 -17 28 -18 39 -6 11 10 11 20 3 41 -5 15 -10 79 -10 142 l0 114 -30
0 -30 0 0 -110 c0 -103 -1 -110 -22 -124 -34 -21 -61 -27 -78 -16 -11 7 -16
37 -20 127 l-5 118 -30 3 -30 3 3 -103z"/>
</g>
</svg>
